<?xml version="1.0" standalone="no"?>
<!DOCTYPE svg PUBLIC "-//W3C//DTD SVG 20010904//EN"
 "http://www.w3.org/TR/2001/REC-SVG-20010904/DTD/svg10.dtd">
<svg version="1.0" xmlns="http://www.w3.org/2000/svg"
 width="700.000000pt" height="700.000000pt" viewBox="0 0 700.000000 700.000000"
 preserveAspectRatio="xMidYMid meet">
<metadata>
Created by potrace 1.14, written by Peter Selinger 2001-2017
</metadata>
<g transform="translate(0.000000,700.000000) scale(0.100000,-0.100000)"
fill="#000000" stroke="none">
<path d="M4947 6993 c-2 -5 -3 -212 -3 -460 1 -294 -3 -454 -9 -456 -5 -1 -99
-2 -207 -2 l-198 1 0 -1736 0 -1735 205 0 c131 0 205 -3 206 -10 1 -5 2 -208
3 -450 l1 -440 98 -2 97 -2 0 452 0 452 203 0 202 0 0 1736 0 1735 -200 0
-200 -1 -3 463 -2 462 -95 0 c-51 0 -96 -3 -98 -7z"/>
<path d="M3584 6200 l-29 -5 0 -458 c0 -451 0 -457 -20 -458 -11 0 -104 -1
-208 -1 l-187 -1 2 -1736 3 -1736 205 0 205 0 0 -448 c0 -515 -15 -456 118
-455 71 1 77 3 77 22 1 12 2 215 3 451 l2 430 201 0 202 0 0 1736 0 1737 -177
0 c-97 0 -188 1 -203 1 l-27 1 2 460 c2 403 0 460 -13 461 -101 3 -131 3 -156
-1z"/>
<path d="M2169 5283 c0 -10 -2 -218 -2 -463 l-2 -445 -205 0 -205 0 -3 -1736
-2 -1736 192 -1 c106 0 200 -1 209 -1 13 -1 15 -49 14 -438 0 -241 1 -444 3
-450 3 -9 31 -13 97 -13 66 0 94 4 97 13 2 6 3 209 3 450 l-1 437 25 1 c14 0
105 1 201 2 l175 2 0 1735 0 1735 -200 0 -200 0 0 460 -1 460 -97 3 c-87 2
-97 1 -98 -15z"/>
</g>
</svg>
