<svg width="628" height="670" viewBox="0 0 628 670" fill="none" xmlns="http://www.w3.org/2000/svg">
<path fill-rule="evenodd" clip-rule="evenodd" d="M451.036 106.834C506.609 139.262 550.886 192.998 560.839 256.638C570.072 315.672 539.605 373.468 499.7 417.993C467.07 454.4 413.101 449.825 368.942 470.748C304.064 501.487 251.989 593.538 185.414 566.904C120.399 540.893 134.074 443.214 126.04 373.57C119.622 317.937 120.188 263.416 144.583 212.966C171.233 157.853 208.023 104.511 265.825 84.492C326.957 63.3205 395.217 74.2624 451.036 106.834Z" fill="#A5B4B4"/>
<path fill-rule="evenodd" clip-rule="evenodd" d="M126.845 133.928C147.954 124.643 174.923 133.376 191.593 149.312C206.422 163.488 199.91 187.104 203.584 207.287C206.836 225.152 219.547 242.763 211.573 259.077C203.279 276.048 182.927 281.978 164.685 286.879C145.947 291.912 124.188 298.391 108.694 286.712C93.663 275.383 96.8903 252.907 94.7969 234.201C93.1088 219.117 93.3073 204.969 97.9281 190.511C104.631 169.537 106.689 142.794 126.845 133.928Z" fill="#FC724D"/>
<path fill-rule="evenodd" clip-rule="evenodd" d="M436.611 130.837C486.335 159.851 525.95 207.931 534.856 264.872C543.117 317.692 515.858 369.405 480.153 409.243C450.958 441.817 402.669 437.724 363.159 456.444C305.11 483.948 258.517 566.309 198.95 542.479C140.778 519.206 153.014 431.809 145.825 369.496C140.083 319.719 140.589 270.936 162.416 225.797C186.261 176.485 219.178 128.758 270.897 110.847C325.594 91.9039 386.668 101.694 436.611 130.837Z" stroke="white"/>
<path fill-rule="evenodd" clip-rule="evenodd" d="M415.504 165.993C456.871 190.131 489.828 230.13 497.237 277.502C504.109 321.444 481.432 364.465 451.728 397.608C427.439 424.708 387.266 421.302 354.397 436.876C306.104 459.758 267.342 528.277 217.786 508.451C169.391 489.09 179.57 416.381 173.589 364.541C168.812 323.13 169.233 282.546 187.392 244.994C207.23 203.97 234.614 164.264 277.641 149.363C323.145 133.603 373.955 141.748 415.504 165.993Z" stroke="white" stroke-width="0.831933"/>
<path fill-rule="evenodd" clip-rule="evenodd" d="M350.09 98.6929C372.761 96.813 399.89 97.6233 413.444 115.893C426.545 133.552 412.751 157.449 409.852 179.246C407.577 196.343 408.928 213.934 398.568 227.723C386.583 243.673 370.041 258.718 350.09 258.784C330.105 258.851 316.119 241.445 301.289 228.048C285.185 213.501 263.067 200.923 262.041 179.246C260.997 157.186 280.146 140.502 296.44 125.595C311.785 111.557 329.364 100.412 350.09 98.6929Z" fill="#F1E1D1"/>
<path fill-rule="evenodd" clip-rule="evenodd" d="M370.614 400.001C390.072 400.09 409.793 407.455 422.023 422.59C433.367 436.629 434.127 456.336 430.409 473.998C427.368 488.44 412.542 495.39 404.14 507.524C391.797 525.352 392.077 557.275 370.614 560.361C349.654 563.374 338.466 535.775 325.831 518.782C315.738 505.207 307.642 490.869 306.403 473.998C305.049 455.568 306.619 436.071 318.73 422.114C331.539 407.353 351.071 399.911 370.614 400.001Z" fill="#ECD0C5"/>
</svg>
