<svg width="49" height="48" viewBox="0 0 49 48" fill="none" xmlns="http://www.w3.org/2000/svg">
<path d="M24.5018 0C17.9837 0 17.1657 0.0285005 14.6056 0.145C12.0506 0.262 10.3066 0.6665 8.78059 1.26C7.20207 1.873 5.86306 2.693 4.52904 4.0275C3.19403 5.3615 2.37402 6.7005 1.75901 8.2785C1.16401 9.805 0.759003 11.5495 0.644002 14.1035C0.53 16.6635 0.5 17.482 0.5 24C0.5 30.518 0.529001 31.3335 0.645002 33.8935C0.762503 36.4485 1.16701 38.1925 1.76001 39.7185C2.37352 41.297 3.19353 42.636 4.52804 43.97C5.86156 45.305 7.20057 46.127 8.77809 46.74C10.3051 47.3335 12.0496 47.738 14.6041 47.855C17.1642 47.9715 17.9817 48 24.4993 48C31.0178 48 31.8333 47.9715 34.3934 47.855C36.9484 47.738 38.6944 47.3335 40.2214 46.74C41.7994 46.127 43.1364 45.305 44.47 43.97C45.805 42.636 46.625 41.297 47.24 39.719C47.83 38.1925 48.235 36.448 48.355 33.894C48.47 31.334 48.5 30.518 48.5 24C48.5 17.482 48.47 16.664 48.355 14.104C48.235 11.549 47.83 9.805 47.24 8.279C46.625 6.7005 45.805 5.3615 44.47 4.0275C43.1349 2.6925 41.7999 1.8725 40.2199 1.26C38.6899 0.6665 36.9449 0.262 34.3899 0.145C31.8298 0.0285005 31.0148 0 24.4947 0H24.5018ZM22.3487 4.325C22.9877 4.324 23.7007 4.325 24.5018 4.325C30.9098 4.325 31.6693 4.348 34.1999 4.463C36.5399 4.57 37.8099 4.961 38.6559 5.2895C39.7759 5.7245 40.5744 6.2445 41.4139 7.0845C42.2539 7.9245 42.7739 8.7245 43.2099 9.8445C43.5385 10.6895 43.93 11.9595 44.0365 14.2995C44.1515 16.8295 44.1765 17.5895 44.1765 23.9945C44.1765 30.3995 44.1515 31.1595 44.0365 33.6895C43.9295 36.0295 43.5385 37.2995 43.2099 38.1445C42.7749 39.2645 42.2539 40.062 41.4139 40.9015C40.5739 41.7415 39.7764 42.2615 38.6559 42.6965C37.8109 43.0265 36.5399 43.4165 34.1999 43.5235C31.6698 43.6385 30.9098 43.6635 24.5018 43.6635C18.0932 43.6635 17.3337 43.6385 14.8036 43.5235C12.4636 43.4155 11.1936 43.0245 10.3471 42.696C9.22709 42.261 8.42708 41.741 7.58707 40.901C6.74707 40.061 6.22706 39.263 5.79106 38.1425C5.46255 37.2975 5.07105 36.0275 4.96455 33.6875C4.84955 31.1575 4.82655 30.3975 4.82655 23.9885C4.82655 17.5795 4.84955 16.8235 4.96455 14.2935C5.07155 11.9535 5.46255 10.6835 5.79106 9.8375C6.22606 8.7175 6.74707 7.9175 7.58707 7.0775C8.42708 6.2375 9.22709 5.7175 10.3471 5.2815C11.1931 4.9515 12.4636 4.5615 14.8036 4.454C17.0177 4.354 17.8757 4.324 22.3487 4.319V4.325Z" fill="url(#paint0_radial_4_960)"/>
<path d="M37.2613 8.25105C36.6916 8.25105 36.1348 8.41998 35.6611 8.73648C35.1875 9.05299 34.8183 9.50284 34.6004 10.0291C34.3824 10.5555 34.3254 11.1346 34.4367 11.6933C34.5479 12.252 34.8223 12.7651 35.2251 13.1679C35.628 13.5706 36.1413 13.8448 36.7 13.9558C37.2588 14.0668 37.8379 14.0097 38.3641 13.7915C38.8903 13.5734 39.3401 13.2041 39.6564 12.7304C39.9728 12.2566 40.1415 11.6997 40.1413 11.13C40.1413 9.54005 38.8513 8.25005 37.2613 8.25005V8.25105Z" fill="url(#paint1_radial_4_960)"/>
<path fill-rule="evenodd" clip-rule="evenodd" d="M24.4501 11.616C17.6436 11.616 12.125 17.1345 12.125 23.941C12.125 30.7475 17.6436 36.2635 24.4501 36.2635C31.2567 36.2635 36.7738 30.7475 36.7738 23.941C36.7738 17.1345 31.2567 11.616 24.4501 11.616ZM24.5 31.875C28.8493 31.875 32.375 28.3493 32.375 24C32.375 19.6508 28.8493 16.125 24.5 16.125C20.1508 16.125 16.625 19.6508 16.625 24C16.625 28.3493 20.1508 31.875 24.5 31.875Z" fill="url(#paint2_radial_4_960)"/>
<path d="M24.5018 0C17.9837 0 17.1657 0.0285005 14.6056 0.145C12.0506 0.262 10.3066 0.6665 8.78059 1.26C7.20207 1.873 5.86306 2.693 4.52904 4.0275C3.19403 5.3615 2.37402 6.7005 1.75901 8.2785C1.16401 9.805 0.759003 11.5495 0.644002 14.1035C0.53 16.6635 0.5 17.482 0.5 24C0.5 30.518 0.529001 31.3335 0.645002 33.8935C0.762503 36.4485 1.16701 38.1925 1.76001 39.7185C2.37352 41.297 3.19353 42.636 4.52804 43.97C5.86156 45.305 7.20057 46.127 8.77809 46.74C10.3051 47.3335 12.0496 47.738 14.6041 47.855C17.1642 47.9715 17.9817 48 24.4993 48C31.0178 48 31.8333 47.9715 34.3934 47.855C36.9484 47.738 38.6944 47.3335 40.2214 46.74C41.7994 46.127 43.1364 45.305 44.47 43.97C45.805 42.636 46.625 41.297 47.24 39.719C47.83 38.1925 48.235 36.448 48.355 33.894C48.47 31.334 48.5 30.518 48.5 24C48.5 17.482 48.47 16.664 48.355 14.104C48.235 11.549 47.83 9.805 47.24 8.279C46.625 6.7005 45.805 5.3615 44.47 4.0275C43.1349 2.6925 41.7999 1.8725 40.2199 1.26C38.6899 0.6665 36.9449 0.262 34.3899 0.145C31.8298 0.0285005 31.0148 0 24.4947 0H24.5018ZM22.3487 4.325C22.9877 4.324 23.7007 4.325 24.5018 4.325C30.9098 4.325 31.6693 4.348 34.1999 4.463C36.5399 4.57 37.8099 4.961 38.6559 5.2895C39.7759 5.7245 40.5744 6.2445 41.4139 7.0845C42.2539 7.9245 42.7739 8.7245 43.2099 9.8445C43.5385 10.6895 43.93 11.9595 44.0365 14.2995C44.1515 16.8295 44.1765 17.5895 44.1765 23.9945C44.1765 30.3995 44.1515 31.1595 44.0365 33.6895C43.9295 36.0295 43.5385 37.2995 43.2099 38.1445C42.7749 39.2645 42.2539 40.062 41.4139 40.9015C40.5739 41.7415 39.7764 42.2615 38.6559 42.6965C37.8109 43.0265 36.5399 43.4165 34.1999 43.5235C31.6698 43.6385 30.9098 43.6635 24.5018 43.6635C18.0932 43.6635 17.3337 43.6385 14.8036 43.5235C12.4636 43.4155 11.1936 43.0245 10.3471 42.696C9.22709 42.261 8.42708 41.741 7.58707 40.901C6.74707 40.061 6.22706 39.263 5.79106 38.1425C5.46255 37.2975 5.07105 36.0275 4.96455 33.6875C4.84955 31.1575 4.82655 30.3975 4.82655 23.9885C4.82655 17.5795 4.84955 16.8235 4.96455 14.2935C5.07155 11.9535 5.46255 10.6835 5.79106 9.8375C6.22606 8.7175 6.74707 7.9175 7.58707 7.0775C8.42708 6.2375 9.22709 5.7175 10.3471 5.2815C11.1931 4.9515 12.4636 4.5615 14.8036 4.454C17.0177 4.354 17.8757 4.324 22.3487 4.319V4.325Z" fill="url(#paint3_radial_4_960)"/>
<path d="M37.2613 8.25105C36.6916 8.25105 36.1348 8.41998 35.6611 8.73648C35.1875 9.05299 34.8183 9.50284 34.6004 10.0291C34.3824 10.5555 34.3254 11.1346 34.4367 11.6933C34.5479 12.252 34.8223 12.7651 35.2251 13.1679C35.628 13.5706 36.1413 13.8448 36.7 13.9558C37.2588 14.0668 37.8379 14.0097 38.3641 13.7915C38.8903 13.5734 39.3401 13.2041 39.6564 12.7304C39.9728 12.2566 40.1415 11.6997 40.1413 11.13C40.1413 9.54005 38.8513 8.25005 37.2613 8.25005V8.25105Z" fill="url(#paint4_radial_4_960)"/>
<path fill-rule="evenodd" clip-rule="evenodd" d="M24.4501 11.616C17.6436 11.616 12.125 17.1345 12.125 23.941C12.125 30.7475 17.6436 36.2635 24.4501 36.2635C31.2567 36.2635 36.7738 30.7475 36.7738 23.941C36.7738 17.1345 31.2567 11.616 24.4501 11.616ZM24.5 31.875C28.8493 31.875 32.375 28.3493 32.375 24C32.375 19.6508 28.8493 16.125 24.5 16.125C20.1508 16.125 16.625 19.6508 16.625 24C16.625 28.3493 20.1508 31.875 24.5 31.875Z" fill="url(#paint5_radial_4_960)"/>
<defs>
<radialGradient id="paint0_radial_4_960" cx="0" cy="0" r="1" gradientUnits="userSpaceOnUse" gradientTransform="translate(13.2501 51.697) rotate(-90) scale(47.5715 44.2453)">
<stop stop-color="#FFDD55"/>
<stop offset="0.1" stop-color="#FFDD55"/>
<stop offset="0.5" stop-color="#FF543E"/>
<stop offset="1" stop-color="#C837AB"/>
</radialGradient>
<radialGradient id="paint1_radial_4_960" cx="0" cy="0" r="1" gradientUnits="userSpaceOnUse" gradientTransform="translate(13.2501 51.697) rotate(-90) scale(47.5715 44.2453)">
<stop stop-color="#FFDD55"/>
<stop offset="0.1" stop-color="#FFDD55"/>
<stop offset="0.5" stop-color="#FF543E"/>
<stop offset="1" stop-color="#C837AB"/>
</radialGradient>
<radialGradient id="paint2_radial_4_960" cx="0" cy="0" r="1" gradientUnits="userSpaceOnUse" gradientTransform="translate(13.2501 51.697) rotate(-90) scale(47.5715 44.2453)">
<stop stop-color="#FFDD55"/>
<stop offset="0.1" stop-color="#FFDD55"/>
<stop offset="0.5" stop-color="#FF543E"/>
<stop offset="1" stop-color="#C837AB"/>
</radialGradient>
<radialGradient id="paint3_radial_4_960" cx="0" cy="0" r="1" gradientUnits="userSpaceOnUse" gradientTransform="translate(-7.54025 3.45784) rotate(78.6806) scale(21.2647 87.6539)">
<stop stop-color="#3771C8"/>
<stop offset="0.128" stop-color="#3771C8"/>
<stop offset="1" stop-color="#6600FF" stop-opacity="0"/>
</radialGradient>
<radialGradient id="paint4_radial_4_960" cx="0" cy="0" r="1" gradientUnits="userSpaceOnUse" gradientTransform="translate(-7.54025 3.45784) rotate(78.6806) scale(21.2647 87.6539)">
<stop stop-color="#3771C8"/>
<stop offset="0.128" stop-color="#3771C8"/>
<stop offset="1" stop-color="#6600FF" stop-opacity="0"/>
</radialGradient>
<radialGradient id="paint5_radial_4_960" cx="0" cy="0" r="1" gradientUnits="userSpaceOnUse" gradientTransform="translate(-7.54025 3.45784) rotate(78.6806) scale(21.2647 87.6539)">
<stop stop-color="#3771C8"/>
<stop offset="0.128" stop-color="#3771C8"/>
<stop offset="1" stop-color="#6600FF" stop-opacity="0"/>
</radialGradient>
</defs>
</svg>
