<svg width="119" height="41" viewBox="0 0 119 41" fill="none" xmlns="http://www.w3.org/2000/svg">
<path d="M0.299959 27.1056C6.33329 27.4389 10.4185 27.6055 12.5555 27.6055C12.7791 27.6241 13.004 27.5937 13.2146 27.5165C13.4252 27.4392 13.6165 27.3171 13.7751 27.1585C13.9337 26.9998 14.0559 26.8086 14.1331 26.598C14.2103 26.3873 14.2407 26.1624 14.2222 25.9389V22.9778H6.60551C4.2944 22.9778 2.61477 22.4556 1.56663 21.4111C0.518477 20.3667 -0.00374518 18.687 -4.14733e-05 16.3722V15.3778C-4.14733e-05 13.0667 0.522181 11.3889 1.56663 10.3444C2.61107 9.3 4.2907 8.77592 6.60551 8.77222H27.7166V13.4H7.92774C6.60551 13.4 5.9444 14.0593 5.9444 15.3778V16.0389C5.9444 17.3611 6.60551 18.0222 7.92774 18.0222H13.8888C16.05 18.0222 17.6333 18.5278 18.65 19.5444C19.6666 20.5611 20.1666 22.1389 20.1666 24.3V25.9667C20.1666 28.1278 19.6611 29.7111 18.65 30.7278C17.6388 31.7444 16.0333 32.2222 13.8888 32.2222C12.7777 32.2222 11.5888 32.2 10.3222 32.1556L7.28329 32.0222C5.02033 31.9148 2.69255 31.763 0.299959 31.5667V27.1056Z" fill="#FBD52D"/>
<path d="M36.6111 8.77222H42.5611V25.6222C42.5611 27.9333 42.037 29.613 40.9889 30.6611C39.9407 31.7093 38.2611 32.2296 35.95 32.2222H28.3333C26.0222 32.2222 24.3389 31.7 23.2944 30.6555C22.25 29.6111 21.7278 27.9278 21.7278 25.6167V14.9444H27.6722V25.6222C27.6722 26.9444 28.3333 27.6055 29.6556 27.6055H34.6111C35.9259 27.6055 36.5852 26.9444 36.5889 25.6222L36.6111 8.77222Z" fill="#FBD52D"/>
<path d="M78.8028 13.8889H74.2179V8.10614H78.8028V9.26269H75.7049V10.3779H78.1419V11.5345H75.7049V12.7324H78.8028V13.8889ZM82.8075 8.10614H84.4597L82.601 10.9975L84.501 13.8889H82.8488L81.6923 12.0715L80.5357 13.8889H78.8835L80.7835 10.9975L78.9248 8.10614H80.5688L81.6923 9.92358L82.8075 8.10614ZM89.215 13.8063C87.9869 13.9165 86.968 13.9715 86.1584 13.9715C85.6187 13.9715 85.2222 13.8449 84.9688 13.5915C84.7155 13.3382 84.5888 12.9416 84.5888 12.4019V9.75836C84.5888 9.18008 84.7182 8.76152 84.9771 8.50267C85.2414 8.23832 85.6628 8.10614 86.241 8.10614H89.215V9.26269H86.5715C86.241 9.26269 86.0758 9.42792 86.0758 9.75836V12.4019C86.0758 12.5286 86.1116 12.6305 86.1832 12.7076C86.2603 12.7792 86.3567 12.815 86.4724 12.815C86.588 12.815 86.7147 12.815 86.8524 12.815C86.99 12.8095 87.1332 12.804 87.2819 12.7984C87.4306 12.7929 87.5793 12.7874 87.728 12.7819C87.8822 12.7764 88.0778 12.7654 88.3146 12.7489C88.5569 12.7324 88.8571 12.7131 89.215 12.6911V13.8063ZM94.9162 13.8889H93.4292V11.5345H91.3639V13.8889H89.8769V8.10614H91.3639V10.3779H93.4292V8.10614H94.9162V13.8889ZM96.944 13.8889H95.3331L97.5223 8.10614H99.1745L101.364 13.8889H99.7528L99.381 12.8563H97.3158L96.944 13.8889ZM97.6875 11.7823H99.0093L98.3484 9.84097L97.6875 11.7823ZM106.816 13.8889H105.246L103.263 10.4192V13.8889H101.776V8.10614H103.346L105.329 11.5758V8.10614H106.816V13.8889ZM112.768 13.765C111.479 13.9027 110.295 13.9715 109.215 13.9715C108.676 13.9715 108.279 13.8449 108.026 13.5915C107.772 13.3382 107.646 12.9416 107.646 12.4019V9.75836C107.646 9.18008 107.775 8.76152 108.034 8.50267C108.298 8.23832 108.72 8.10614 109.298 8.10614H112.272V9.26269H109.628C109.298 9.26269 109.133 9.42792 109.133 9.75836V12.4019C109.133 12.5286 109.169 12.6305 109.24 12.7076C109.317 12.7792 109.419 12.815 109.546 12.815C110.179 12.815 110.757 12.8012 111.281 12.7737V11.5758H110.207V10.5845H112.768V13.765ZM118.18 13.8889H113.595V8.10614H118.18V9.26269H115.082V10.3779H117.519V11.5345H115.082V12.7324H118.18V13.8889Z" fill="#FBD52D"/>
<path d="M77.0267 23.3333H75.5397V18.7071H73.8048V17.5505H78.7615V18.7071H77.0267V23.3333ZM79.3408 17.5505H82.8104C83.3887 17.5505 83.8073 17.6827 84.0661 17.9471C84.3305 18.2059 84.4626 18.6245 84.4626 19.2028V19.9463C84.4626 20.4034 84.3855 20.7586 84.2313 21.0119C84.0826 21.2653 83.8431 21.4333 83.5126 21.5159L84.5453 23.3333H82.9343L81.9843 21.5985H80.8278V23.3333H79.3408V17.5505ZM82.9756 19.2028C82.9756 18.8723 82.8104 18.7071 82.48 18.7071H80.8278V20.4419H82.48C82.8104 20.4419 82.9756 20.2767 82.9756 19.9463V19.2028ZM86.3191 23.3333H84.7082L86.8974 17.5505H88.5496L90.7388 23.3333H89.1279L88.7562 22.3007H86.6909L86.3191 23.3333ZM87.0626 21.2267H88.3844L87.7235 19.2854L87.0626 21.2267ZM94.3734 17.5505C94.9957 17.5505 95.4666 17.713 95.786 18.0379C96.111 18.3574 96.2734 18.8283 96.2734 19.4506V21.4333C96.2734 22.0556 96.111 22.5292 95.786 22.8542C95.4666 23.1736 94.9957 23.3333 94.3734 23.3333H91.1516V17.5505H94.3734ZM94.7864 19.4506C94.7864 18.9549 94.5386 18.7071 94.0429 18.7071H92.6386V22.1768H94.0429C94.5386 22.1768 94.7864 21.9289 94.7864 21.4333V19.4506ZM101.682 23.3333H97.0973V17.5505H101.682V18.7071H98.5843V19.8223H101.021V20.9789H98.5843V22.1768H101.682V23.3333ZM102.341 17.5505H105.811C106.389 17.5505 106.808 17.6827 107.067 17.9471C107.331 18.2059 107.463 18.6245 107.463 19.2028V19.9463C107.463 20.4034 107.386 20.7586 107.232 21.0119C107.083 21.2653 106.843 21.4333 106.513 21.5159L107.546 23.3333H105.935L104.985 21.5985H103.828V23.3333H102.341V17.5505ZM105.976 19.2028C105.976 18.8723 105.811 18.7071 105.48 18.7071H103.828V20.4419H105.48C105.811 20.4419 105.976 20.2767 105.976 19.9463V19.2028ZM108.039 17.5505H109.526V18.7071L108.948 19.6158H108.204L108.535 18.7897H108.039V17.5505ZM110.098 22.1355C111.607 22.2181 112.629 22.2594 113.163 22.2594C113.29 22.2594 113.389 22.2236 113.46 22.152C113.537 22.0749 113.576 21.973 113.576 21.8463V21.1028H111.676C111.098 21.1028 110.676 20.9734 110.412 20.7145C110.153 20.4502 110.024 20.0289 110.024 19.4506V19.2028C110.024 18.6245 110.153 18.2059 110.412 17.9471C110.676 17.6827 111.098 17.5505 111.676 17.5505H114.576V18.7071H112.006C111.676 18.7071 111.511 18.8723 111.511 19.2028V19.368C111.511 19.6984 111.676 19.8636 112.006 19.8636H113.493C114.033 19.8636 114.43 19.9903 114.683 20.2437C114.936 20.497 115.063 20.8935 115.063 21.4333V21.8463C115.063 22.386 114.936 22.7826 114.683 23.0359C114.43 23.2893 114.033 23.4159 113.493 23.4159C113.212 23.4159 112.915 23.4104 112.601 23.3994L111.841 23.3664C111.279 23.3388 110.698 23.3003 110.098 23.2507V22.1355Z" fill="#FBD52D"/>
<path d="M77.9354 28.5646C77.9354 28.2342 77.7702 28.0689 77.4397 28.0689H76.0353C75.7049 28.0689 75.5397 28.2342 75.5397 28.5646V31.2082C75.5397 31.5386 75.7049 31.7038 76.0353 31.7038H77.4397C77.7702 31.7038 77.9354 31.5386 77.9354 31.2082V28.5646ZM79.4224 31.2082C79.4224 31.7864 79.2902 32.2078 79.0259 32.4721C78.767 32.731 78.3485 32.8604 77.7702 32.8604H75.7049C75.1266 32.8604 74.7053 32.731 74.4409 32.4721C74.1821 32.2078 74.0527 31.7864 74.0527 31.2082V28.5646C74.0527 27.9863 74.1821 27.5678 74.4409 27.3089C74.7053 27.0446 75.1266 26.9124 75.7049 26.9124H77.7702C78.3485 26.9124 78.767 27.0446 79.0259 27.3089C79.2902 27.5678 79.4224 27.9863 79.4224 28.5646V31.2082ZM81.7394 32.7778H80.2524V26.995H84.8373V28.1515H81.7394V29.5146H84.1764V30.6712H81.7394V32.7778ZM86.9026 32.7778H85.4156V26.995H90.0005V28.1515H86.9026V29.5146H89.3396V30.6712H86.9026V32.7778ZM93.3049 32.7778H90.3309V31.6212H91.0744V28.1515H90.3309V26.995H93.3049V28.1515H92.5614V31.6212H93.3049V32.7778ZM98.5088 32.6952C97.2806 32.8053 96.2618 32.8604 95.4522 32.8604C94.9125 32.8604 94.5159 32.7337 94.2626 32.4804C94.0092 32.227 93.8826 31.8305 93.8826 31.2908V28.6472C93.8826 28.0689 94.012 27.6504 94.2708 27.3915C94.5352 27.1272 94.9565 26.995 95.5348 26.995H98.5088V28.1515H95.8652C95.5348 28.1515 95.3696 28.3168 95.3696 28.6472V31.2908C95.3696 31.4174 95.4054 31.5193 95.477 31.5964C95.5541 31.668 95.6504 31.7038 95.7661 31.7038C95.8818 31.7038 96.0084 31.7038 96.1461 31.7038C96.2838 31.6983 96.427 31.6928 96.5757 31.6873C96.7244 31.6818 96.8731 31.6763 97.0218 31.6708C97.176 31.6653 97.3715 31.6543 97.6083 31.6377C97.8507 31.6212 98.1508 31.6019 98.5088 31.5799V32.6952ZM103.756 32.7778H99.1706V26.995H103.756V28.1515H100.658V29.2668H103.095V30.4234H100.658V31.6212H103.756V32.7778Z" fill="#FBD52D"/>
<path d="M53.1944 15.3777H47.2277V35.7111H53.1944V15.3777Z" fill="#22A59A"/>
<path d="M50.8222 9.96667H49.6667V41H50.8222V9.96667Z" fill="#22A59A"/>
<path d="M61.3334 10.0889H55.3667V30.4222H61.3334V10.0889Z" fill="#22A59A"/>
<path d="M58.9555 4.6778H57.8V35.7111H58.9555V4.6778Z" fill="#22A59A"/>
<path d="M69.4666 5.41107H63.4999V25.7444H69.4666V5.41107Z" fill="#22A59A"/>
<path d="M67.0888 0H65.9333V31.0333H67.0888V0Z" fill="#22A59A"/>
</svg>
