<svg width="226" height="37" viewBox="0 0 226 37" fill="none" xmlns="http://www.w3.org/2000/svg">
<path d="M9.08 11.92H21.4V19.04H9.08V11.92ZM9.72 28H0.28V-1.90735e-06H23.04V7.12H9.72V28ZM37.1116 28.4C34.6316 28.4 32.4316 27.92 30.5116 26.96C28.6182 25.9733 27.1249 24.6267 26.0316 22.92C24.9382 21.2133 24.3916 19.2533 24.3916 17.04C24.3916 14.8267 24.9382 12.8667 26.0316 11.16C27.1249 9.45333 28.6182 8.12 30.5116 7.16C32.4316 6.2 34.6316 5.72 37.1116 5.72C39.5916 5.72 41.7916 6.2 43.7116 7.16C45.6316 8.12 47.1249 9.45333 48.1916 11.16C49.2849 12.8667 49.8316 14.8267 49.8316 17.04C49.8316 19.2533 49.2849 21.2133 48.1916 22.92C47.1249 24.6267 45.6316 25.9733 43.7116 26.96C41.7916 27.92 39.5916 28.4 37.1116 28.4ZM37.1116 21.36C37.7782 21.36 38.3782 21.2 38.9116 20.88C39.4449 20.56 39.8716 20.08 40.1916 19.44C40.5116 18.7733 40.6716 17.9733 40.6716 17.04C40.6716 16.08 40.5116 15.2933 40.1916 14.68C39.8716 14.04 39.4449 13.56 38.9116 13.24C38.3782 12.92 37.7782 12.76 37.1116 12.76C36.4449 12.76 35.8449 12.92 35.3116 13.24C34.7782 13.56 34.3516 14.04 34.0316 14.68C33.7116 15.2933 33.5516 16.08 33.5516 17.04C33.5516 17.9733 33.7116 18.7733 34.0316 19.44C34.3516 20.08 34.7782 20.56 35.3116 20.88C35.8449 21.2 36.4449 21.36 37.1116 21.36ZM52.8609 28V6.12H61.4609V12.72L60.0609 10.84C60.7276 9.13333 61.7943 7.85333 63.2609 7C64.7276 6.14667 66.4876 5.72 68.5409 5.72V13.72C68.1409 13.6667 67.7809 13.6267 67.4609 13.6C67.1676 13.5733 66.8609 13.56 66.5409 13.56C65.1809 13.56 64.0609 13.92 63.1809 14.64C62.3276 15.3333 61.9009 16.5467 61.9009 18.28V28H52.8609ZM83.1878 28.4C80.5211 28.4 78.1878 27.9067 76.1878 26.92C74.2145 25.9333 72.6811 24.5867 71.5878 22.88C70.4945 21.1467 69.9478 19.2 69.9478 17.04C69.9478 14.8267 70.4811 12.8667 71.5478 11.16C72.6411 9.45333 74.1211 8.12 75.9878 7.16C77.8811 6.2 80.0011 5.72 82.3478 5.72C84.5078 5.72 86.4945 6.14667 88.3078 7C90.1478 7.85333 91.6145 9.12 92.7078 10.8C93.8278 12.48 94.3878 14.56 94.3878 17.04C94.3878 17.36 94.3745 17.72 94.3478 18.12C94.3211 18.4933 94.2945 18.84 94.2678 19.16H77.4278V14.8H89.4678L86.0678 15.96C86.0678 15.1067 85.9078 14.3867 85.5878 13.8C85.2945 13.1867 84.8811 12.72 84.3478 12.4C83.8145 12.0533 83.1745 11.88 82.4278 11.88C81.6811 11.88 81.0278 12.0533 80.4678 12.4C79.9345 12.72 79.5211 13.1867 79.2278 13.8C78.9345 14.3867 78.7878 15.1067 78.7878 15.96V17.32C78.7878 18.2533 78.9745 19.0533 79.3478 19.72C79.7211 20.3867 80.2545 20.8933 80.9478 21.24C81.6411 21.56 82.4811 21.72 83.4678 21.72C84.4811 21.72 85.3078 21.5867 85.9478 21.32C86.6145 21.0533 87.3078 20.6533 88.0278 20.12L92.7478 24.88C91.6811 26.0267 90.3611 26.9067 88.7878 27.52C87.2411 28.1067 85.3745 28.4 83.1878 28.4ZM94.4947 28L104.815 14.48L104.575 19.68L94.7347 6.12H104.935L109.775 13.36L106.015 13.64L111.335 6.12H120.815L110.935 19.24V14.24L121.015 28H110.655L105.655 20.28L109.455 20.8L104.295 28H94.4947ZM120.154 23.2V17.2L132.034 -1.90735e-06H141.714L130.274 17.2L125.874 15.88H147.554V23.2H120.154ZM134.674 28V23.2L134.954 15.88V11.6H143.834V28H134.674ZM153.539 36.16C152.339 36.16 151.112 35.9733 149.859 35.6C148.632 35.2533 147.646 34.7867 146.899 34.2L149.899 28C150.352 28.3467 150.859 28.6267 151.419 28.84C152.006 29.0533 152.566 29.16 153.099 29.16C153.899 29.16 154.512 28.9867 154.939 28.64C155.366 28.32 155.712 27.8267 155.979 27.16L156.899 24.84L157.539 23.96L164.539 6.12H173.099L164.099 28.44C163.299 30.44 162.366 32 161.299 33.12C160.259 34.24 159.086 35.0267 157.779 35.48C156.499 35.9333 155.086 36.16 153.539 36.16ZM155.659 29L146.139 6.12H155.419L161.979 23.16L155.659 29ZM185.655 28.4C183.175 28.4 180.975 27.92 179.055 26.96C177.162 25.9733 175.669 24.6267 174.575 22.92C173.482 21.2133 172.935 19.2533 172.935 17.04C172.935 14.8267 173.482 12.8667 174.575 11.16C175.669 9.45333 177.162 8.12 179.055 7.16C180.975 6.2 183.175 5.72 185.655 5.72C188.135 5.72 190.335 6.2 192.255 7.16C194.175 8.12 195.669 9.45333 196.735 11.16C197.829 12.8667 198.375 14.8267 198.375 17.04C198.375 19.2533 197.829 21.2133 196.735 22.92C195.669 24.6267 194.175 25.9733 192.255 26.96C190.335 27.92 188.135 28.4 185.655 28.4ZM185.655 21.36C186.322 21.36 186.922 21.2 187.455 20.88C187.989 20.56 188.415 20.08 188.735 19.44C189.055 18.7733 189.215 17.9733 189.215 17.04C189.215 16.08 189.055 15.2933 188.735 14.68C188.415 14.04 187.989 13.56 187.455 13.24C186.922 12.92 186.322 12.76 185.655 12.76C184.989 12.76 184.389 12.92 183.855 13.24C183.322 13.56 182.895 14.04 182.575 14.68C182.255 15.2933 182.095 16.08 182.095 17.04C182.095 17.9733 182.255 18.7733 182.575 19.44C182.895 20.08 183.322 20.56 183.855 20.88C184.389 21.2 184.989 21.36 185.655 21.36ZM210.525 28.4C208.791 28.4 207.218 28.0533 205.805 27.36C204.418 26.64 203.325 25.5333 202.525 24.04C201.725 22.52 201.325 20.5733 201.325 18.2V6.12H210.365V16.64C210.365 18.1867 210.618 19.2667 211.125 19.88C211.631 20.4933 212.325 20.8 213.205 20.8C213.738 20.8 214.231 20.6667 214.685 20.4C215.165 20.1067 215.551 19.64 215.845 19C216.138 18.3333 216.285 17.4667 216.285 16.4V6.12H225.325V28H216.725V21.68L218.445 23.4C217.671 25.1067 216.565 26.3733 215.125 27.2C213.711 28 212.178 28.4 210.525 28.4Z" fill="#BFBFBF"/>
</svg>
