<svg width="234" height="31" viewBox="0 0 234 31" fill="none" xmlns="http://www.w3.org/2000/svg">
<path d="M0.28 30V2H13.76C16.3733 2 18.6267 2.42666 20.52 3.28C22.44 4.13333 23.92 5.36 24.96 6.96C26 8.53333 26.52 10.4 26.52 12.56C26.52 14.72 26 16.5867 24.96 18.16C23.92 19.7067 22.44 20.8933 20.52 21.72C18.6267 22.5467 16.3733 22.96 13.76 22.96H5.52L9.72 19.08V30H0.28ZM17.04 30L10.16 19.8H20.16L27.12 30H17.04ZM9.72 20.12L5.52 15.84H13.16C14.4667 15.84 15.4267 15.5467 16.04 14.96C16.68 14.3733 17 13.5733 17 12.56C17 11.5467 16.68 10.7467 16.04 10.16C15.4267 9.57333 14.4667 9.28 13.16 9.28H5.52L9.72 5V20.12ZM41.5647 30.4C39.0847 30.4 36.8847 29.92 34.9647 28.96C33.0714 27.9733 31.578 26.6267 30.4847 24.92C29.3914 23.2133 28.8447 21.2533 28.8447 19.04C28.8447 16.8267 29.3914 14.8667 30.4847 13.16C31.578 11.4533 33.0714 10.12 34.9647 9.16C36.8847 8.2 39.0847 7.72 41.5647 7.72C44.0447 7.72 46.2447 8.2 48.1647 9.16C50.0847 10.12 51.578 11.4533 52.6447 13.16C53.738 14.8667 54.2847 16.8267 54.2847 19.04C54.2847 21.2533 53.738 23.2133 52.6447 24.92C51.578 26.6267 50.0847 27.9733 48.1647 28.96C46.2447 29.92 44.0447 30.4 41.5647 30.4ZM41.5647 23.36C42.2314 23.36 42.8314 23.2 43.3647 22.88C43.898 22.56 44.3247 22.08 44.6447 21.44C44.9647 20.7733 45.1247 19.9733 45.1247 19.04C45.1247 18.08 44.9647 17.2933 44.6447 16.68C44.3247 16.04 43.898 15.56 43.3647 15.24C42.8314 14.92 42.2314 14.76 41.5647 14.76C40.898 14.76 40.298 14.92 39.7647 15.24C39.2314 15.56 38.8047 16.04 38.4847 16.68C38.1647 17.2933 38.0047 18.08 38.0047 19.04C38.0047 19.9733 38.1647 20.7733 38.4847 21.44C38.8047 22.08 39.2314 22.56 39.7647 22.88C40.298 23.2 40.898 23.36 41.5647 23.36ZM71.9141 30.4C69.9141 30.4 68.3007 30 67.0741 29.2C65.8474 28.4 64.9541 27.16 64.3941 25.48C63.8607 23.8 63.5941 21.6533 63.5941 19.04C63.5941 16.4533 63.8874 14.3333 64.4741 12.68C65.0607 11 65.9674 9.76 67.1941 8.96C68.4474 8.13333 70.0207 7.72 71.9141 7.72C73.8341 7.72 75.5941 8.17333 77.1941 9.08C78.7941 9.98667 80.0741 11.2933 81.0341 13C81.9941 14.68 82.4741 16.6933 82.4741 19.04C82.4741 21.3867 81.9941 23.4133 81.0341 25.12C80.0741 26.8 78.7941 28.1067 77.1941 29.04C75.5941 29.9467 73.8341 30.4 71.9141 30.4ZM57.3141 30V0.319998H66.3541V11.04L65.9541 19.04L65.9141 27.04V30H57.3141ZM69.7541 23.36C70.4207 23.36 71.0207 23.2 71.5541 22.88C72.0874 22.56 72.5141 22.08 72.8341 21.44C73.1541 20.7733 73.3141 19.9733 73.3141 19.04C73.3141 18.08 73.1541 17.2933 72.8341 16.68C72.5141 16.04 72.0874 15.56 71.5541 15.24C71.0207 14.92 70.4207 14.76 69.7541 14.76C69.0874 14.76 68.4874 14.92 67.9541 15.24C67.4207 15.56 66.9941 16.04 66.6741 16.68C66.3541 17.2933 66.1941 18.08 66.1941 19.04C66.1941 19.9733 66.3541 20.7733 66.6741 21.44C66.9941 22.08 67.4207 22.56 67.9541 22.88C68.4874 23.2 69.0874 23.36 69.7541 23.36ZM97.0819 30.4C94.6019 30.4 92.4019 29.92 90.4819 28.96C88.5885 27.9733 87.0952 26.6267 86.0019 24.92C84.9085 23.2133 84.3619 21.2533 84.3619 19.04C84.3619 16.8267 84.9085 14.8667 86.0019 13.16C87.0952 11.4533 88.5885 10.12 90.4819 9.16C92.4019 8.2 94.6019 7.72 97.0819 7.72C99.5619 7.72 101.762 8.2 103.682 9.16C105.602 10.12 107.095 11.4533 108.162 13.16C109.255 14.8667 109.802 16.8267 109.802 19.04C109.802 21.2533 109.255 23.2133 108.162 24.92C107.095 26.6267 105.602 27.9733 103.682 28.96C101.762 29.92 99.5619 30.4 97.0819 30.4ZM97.0819 23.36C97.7485 23.36 98.3485 23.2 98.8819 22.88C99.4152 22.56 99.8419 22.08 100.162 21.44C100.482 20.7733 100.642 19.9733 100.642 19.04C100.642 18.08 100.482 17.2933 100.162 16.68C99.8419 16.04 99.4152 15.56 98.8819 15.24C98.3485 14.92 97.7485 14.76 97.0819 14.76C96.4152 14.76 95.8152 14.92 95.2819 15.24C94.7485 15.56 94.3219 16.04 94.0019 16.68C93.6819 17.2933 93.5219 18.08 93.5219 19.04C93.5219 19.9733 93.6819 20.7733 94.0019 21.44C94.3219 22.08 94.7485 22.56 95.2819 22.88C95.8152 23.2 96.4152 23.36 97.0819 23.36ZM121.911 13.92H134.231V21.04H121.911V13.92ZM122.551 30H113.111V2H135.871V9.12H122.551V30ZM149.943 30.4C147.463 30.4 145.263 29.92 143.343 28.96C141.449 27.9733 139.956 26.6267 138.863 24.92C137.769 23.2133 137.223 21.2533 137.223 19.04C137.223 16.8267 137.769 14.8667 138.863 13.16C139.956 11.4533 141.449 10.12 143.343 9.16C145.263 8.2 147.463 7.72 149.943 7.72C152.423 7.72 154.623 8.2 156.543 9.16C158.463 10.12 159.956 11.4533 161.023 13.16C162.116 14.8667 162.663 16.8267 162.663 19.04C162.663 21.2533 162.116 23.2133 161.023 24.92C159.956 26.6267 158.463 27.9733 156.543 28.96C154.623 29.92 152.423 30.4 149.943 30.4ZM149.943 23.36C150.609 23.36 151.209 23.2 151.743 22.88C152.276 22.56 152.703 22.08 153.023 21.44C153.343 20.7733 153.503 19.9733 153.503 19.04C153.503 18.08 153.343 17.2933 153.023 16.68C152.703 16.04 152.276 15.56 151.743 15.24C151.209 14.92 150.609 14.76 149.943 14.76C149.276 14.76 148.676 14.92 148.143 15.24C147.609 15.56 147.183 16.04 146.863 16.68C146.543 17.2933 146.383 18.08 146.383 19.04C146.383 19.9733 146.543 20.7733 146.863 21.44C147.183 22.08 147.609 22.56 148.143 22.88C148.676 23.2 149.276 23.36 149.943 23.36ZM165.692 30V8.12H174.292V14.72L172.892 12.84C173.559 11.1333 174.626 9.85333 176.092 9C177.559 8.14667 179.319 7.72 181.372 7.72V15.72C180.972 15.6667 180.612 15.6267 180.292 15.6C179.999 15.5733 179.692 15.56 179.372 15.56C178.012 15.56 176.892 15.92 176.012 16.64C175.159 17.3333 174.732 18.5467 174.732 20.28V30H165.692ZM196.019 30.4C193.352 30.4 191.019 29.9067 189.019 28.92C187.046 27.9333 185.512 26.5867 184.419 24.88C183.326 23.1467 182.779 21.2 182.779 19.04C182.779 16.8267 183.312 14.8667 184.379 13.16C185.472 11.4533 186.952 10.12 188.819 9.16C190.712 8.2 192.832 7.72 195.179 7.72C197.339 7.72 199.326 8.14667 201.139 9C202.979 9.85333 204.446 11.12 205.539 12.8C206.659 14.48 207.219 16.56 207.219 19.04C207.219 19.36 207.206 19.72 207.179 20.12C207.152 20.4933 207.126 20.84 207.099 21.16H190.259V16.8H202.299L198.899 17.96C198.899 17.1067 198.739 16.3867 198.419 15.8C198.126 15.1867 197.712 14.72 197.179 14.4C196.646 14.0533 196.006 13.88 195.259 13.88C194.512 13.88 193.859 14.0533 193.299 14.4C192.766 14.72 192.352 15.1867 192.059 15.8C191.766 16.3867 191.619 17.1067 191.619 17.96V19.32C191.619 20.2533 191.806 21.0533 192.179 21.72C192.552 22.3867 193.086 22.8933 193.779 23.24C194.472 23.56 195.312 23.72 196.299 23.72C197.312 23.72 198.139 23.5867 198.779 23.32C199.446 23.0533 200.139 22.6533 200.859 22.12L205.579 26.88C204.512 28.0267 203.192 28.9067 201.619 29.52C200.072 30.1067 198.206 30.4 196.019 30.4ZM207.326 30L217.646 16.48L217.406 21.68L207.566 8.12H217.766L222.606 15.36L218.846 15.64L224.166 8.12H233.646L223.766 21.24V16.24L233.846 30H223.486L218.486 22.28L222.286 22.8L217.126 30H207.326Z" fill="#DEDEDE"/>
</svg>
