<svg width="20" height="20" viewBox="0 0 20 20" fill="none" xmlns="http://www.w3.org/2000/svg">
<path d="M19.0967 7.41939C19.039 7.24958 18.9329 7.10037 18.7914 6.99018C18.6499 6.87999 18.4793 6.81365 18.3005 6.79934L13.0714 6.38383L10.8086 1.37482C10.7365 1.21349 10.6193 1.07646 10.4711 0.980278C10.3228 0.884093 10.15 0.832861 9.97326 0.832764C9.79657 0.832667 9.62362 0.883709 9.4753 0.979732C9.32697 1.07575 9.2096 1.21265 9.13736 1.3739L6.87455 6.38383L1.64539 6.79934C1.4697 6.81326 1.30174 6.8775 1.1616 6.98438C1.02147 7.09125 0.915087 7.23624 0.855191 7.40199C0.795296 7.56774 0.784422 7.74724 0.823869 7.91901C0.863317 8.09078 0.951416 8.24755 1.07763 8.37056L4.94193 12.1376L3.57526 18.0556C3.53376 18.2348 3.54706 18.4222 3.61343 18.5937C3.6798 18.7652 3.79618 18.9128 3.94747 19.0173C4.09876 19.1218 4.27797 19.1785 4.46184 19.1799C4.64571 19.1813 4.82576 19.1274 4.97862 19.0252L9.97296 15.6956L14.9673 19.0252C15.1235 19.1289 15.3078 19.1823 15.4953 19.1782C15.6828 19.1741 15.8645 19.1126 16.0161 19.0022C16.1676 18.8917 16.2817 18.7374 16.3429 18.5602C16.4042 18.3829 16.4097 18.1912 16.3587 18.0107L14.6811 12.1404L18.8417 8.39625C19.1141 8.15043 19.2141 7.76702 19.0967 7.41939V7.41939Z" fill="#F3CD03"/>
</svg>
