<svg width="662" height="670" viewBox="0 0 662 670" fill="none" xmlns="http://www.w3.org/2000/svg">
<path fill-rule="evenodd" clip-rule="evenodd" d="M485.036 106.834C540.609 139.262 584.886 192.998 594.839 256.638C604.072 315.672 573.605 373.468 533.7 417.993C501.07 454.4 447.101 449.825 402.942 470.748C338.064 501.487 285.989 593.538 219.414 566.904C154.399 540.893 168.074 443.214 160.04 373.57C153.622 317.937 154.188 263.416 178.583 212.966C205.233 157.853 242.023 104.511 299.825 84.492C360.957 63.3205 429.217 74.2624 485.036 106.834Z" fill="#A5B4B4"/>
<path fill-rule="evenodd" clip-rule="evenodd" d="M155.845 145.928C176.954 136.643 203.923 145.376 220.593 161.312C235.422 175.488 228.91 199.104 232.584 219.287C235.836 237.152 248.547 254.763 240.573 271.077C232.279 288.048 211.927 293.978 193.685 298.879C174.947 303.912 153.188 310.391 137.694 298.712C122.663 287.383 125.89 264.907 123.797 246.201C122.109 231.117 122.307 216.969 126.928 202.511C133.631 181.537 135.689 154.794 155.845 145.928Z" fill="#FC724D"/>
<path fill-rule="evenodd" clip-rule="evenodd" d="M470.611 130.837C520.335 159.851 559.95 207.931 568.856 264.872C577.117 317.692 549.858 369.405 514.153 409.243C484.958 441.817 436.669 437.724 397.159 456.444C339.11 483.948 292.517 566.309 232.95 542.479C174.778 519.206 187.014 431.809 179.825 369.496C174.083 319.719 174.589 270.936 196.416 225.797C220.261 176.485 253.178 128.758 304.897 110.847C359.594 91.9039 420.668 101.694 470.611 130.837Z" stroke="white"/>
<path fill-rule="evenodd" clip-rule="evenodd" d="M449.504 165.993C490.871 190.131 523.828 230.13 531.237 277.502C538.109 321.444 515.432 364.465 485.728 397.608C461.439 424.708 421.266 421.302 388.397 436.876C340.104 459.758 301.342 528.277 251.786 508.451C203.391 489.09 213.57 416.381 207.589 364.541C202.812 323.13 203.233 282.546 221.392 244.994C241.23 203.97 268.614 164.264 311.641 149.363C357.145 133.603 407.955 141.748 449.504 165.993Z" stroke="white" stroke-width="0.831933"/>
<path fill-rule="evenodd" clip-rule="evenodd" d="M384.09 98.6929C406.761 96.813 433.89 97.6233 447.444 115.893C460.545 133.552 446.751 157.449 443.852 179.246C441.577 196.343 442.928 213.934 432.568 227.723C420.583 243.673 404.041 258.718 384.09 258.784C364.105 258.851 350.119 241.445 335.289 228.048C319.185 213.501 297.067 200.923 296.041 179.246C294.997 157.186 314.146 140.502 330.44 125.595C345.785 111.557 363.364 100.412 384.09 98.6929Z" fill="#F1E1D1"/>
<path fill-rule="evenodd" clip-rule="evenodd" d="M64.6143 308.001C84.0722 308.09 103.793 315.455 116.023 330.59C127.367 344.629 128.127 364.336 124.409 381.998C121.368 396.44 106.542 403.39 98.1404 415.524C85.7971 433.352 86.0775 465.275 64.6143 468.361C43.654 471.374 32.4658 443.775 19.831 426.782C9.73801 413.207 1.64227 398.869 0.403012 381.998C-0.950804 363.568 0.618576 344.071 12.73 330.114C25.539 315.353 45.0706 307.911 64.6143 308.001Z" fill="#ECD0C5"/>
</svg>
